{
	"asset":{
		"generator":"Khronos glTF Blender I/O v3.5.30",
		"version":"2.0"
	},
	"extensionsUsed":[
		"KHR_materials_transmission",
		"KHR_materials_ior"
	],
	"scene":0,
	"scenes":[
		{
			"name":"Scene",
			"nodes":[
				0,
				1
			]
		}
	],
	"nodes":[
		{
			"mesh":0,
			"name":"Cylinder"
		},
		{
			"mesh":1,
			"name":"Cylinder.001",
			"scale":[
				0.9336574673652649,
				0.9336574673652649,
				0.9336574673652649
			]
		}
	],
	"materials":[
		{
			"alphaMode":"BLEND",
			"doubleSided":true,
			"extensions":{
				"KHR_materials_transmission":{
					"transmissionFactor":0.5869565010070801
				},
				"KHR_materials_ior":{
					"ior":1.4500000476837158
				}
			},
			"name":"Material.002",
			"pbrMetallicRoughness":{
				"baseColorFactor":[
					0.800000011920929,
					0.800000011920929,
					0.800000011920929,
					1
				],
				"metallicFactor":0,
				"roughnessFactor":0.5
			}
		},
		{
			"alphaMode":"BLEND",
			"doubleSided":true,
			"emissiveFactor":[
				0,
				0.1195402592420578,
				1
			],
			"extensions":{
				"KHR_materials_transmission":{
					"transmissionFactor":0.5869565010070801
				},
				"KHR_materials_ior":{
					"ior":1.4500000476837158
				}
			},
			"name":"Material.001",
			"pbrMetallicRoughness":{
				"baseColorFactor":[
					0.13509505987167358,
					0.4937672019004822,
					0.8000000715255737,
					0.6521738767623901
				],
				"metallicFactor":0,
				"roughnessFactor":0.5
			}
		}
	],
	"meshes":[
		{
			"name":"Cylinder",
			"primitives":[
				{
					"attributes":{
						"POSITION":0,
						"TEXCOORD_0":1,
						"NORMAL":2
					},
					"indices":3,
					"material":0
				}
			]
		},
		{
			"name":"Cylinder.001",
			"primitives":[
				{
					"attributes":{
						"POSITION":4,
						"TEXCOORD_0":5,
						"NORMAL":6
					},
					"indices":7,
					"material":1
				}
			]
		}
	],
	"accessors":[
		{
			"bufferView":0,
			"componentType":5126,
			"count":98,
			"max":[
				0.696967363357544,
				2,
				0.696967363357544
			],
			"min":[
				-0.696967363357544,
				0,
				-0.696967363357544
			],
			"type":"VEC3"
		},
		{
			"bufferView":1,
			"componentType":5126,
			"count":98,
			"type":"VEC2"
		},
		{
			"bufferView":2,
			"componentType":5126,
			"count":98,
			"type":"VEC3"
		},
		{
			"bufferView":3,
			"componentType":5123,
			"count":282,
			"type":"SCALAR"
		},
		{
			"bufferView":4,
			"componentType":5126,
			"count":130,
			"max":[
				0.6473132371902466,
				1.5636217594146729,
				0.6473132371902466
			],
			"min":[
				-0.6473132371902466,
				0.02342022769153118,
				-0.6473132371902466
			],
			"type":"VEC3"
		},
		{
			"bufferView":5,
			"componentType":5126,
			"count":130,
			"type":"VEC2"
		},
		{
			"bufferView":6,
			"componentType":5126,
			"count":130,
			"type":"VEC3"
		},
		{
			"bufferView":7,
			"componentType":5123,
			"count":372,
			"type":"SCALAR"
		}
	],
	"bufferViews":[
		{
			"buffer":0,
			"byteLength":1176,
			"byteOffset":0,
			"target":34962
		},
		{
			"buffer":0,
			"byteLength":784,
			"byteOffset":1176,
			"target":34962
		},
		{
			"buffer":0,
			"byteLength":1176,
			"byteOffset":1960,
			"target":34962
		},
		{
			"buffer":0,
			"byteLength":564,
			"byteOffset":3136,
			"target":34963
		},
		{
			"buffer":0,
			"byteLength":1560,
			"byteOffset":3700,
			"target":34962
		},
		{
			"buffer":0,
			"byteLength":1040,
			"byteOffset":5260,
			"target":34962
		},
		{
			"buffer":0,
			"byteLength":1560,
			"byteOffset":6300,
			"target":34962
		},
		{
			"buffer":0,
			"byteLength":744,
			"byteOffset":7860,
			"target":34963
		}
	],
	"buffers":[
		{
			"byteLength":8604,
			"uri":"data:application/octet-stream;base64,"
		}
	]
}
