{
	"asset":{
		"generator":"Khronos glTF Blender I/O v3.5.30",
		"version":"2.0"
	},
	"extensionsUsed":[
		"KHR_materials_specular",
		"KHR_materials_ior"
	],
	"scene":0,
	"scenes":[
		{
			"extras":{
				"blosm":{
					"defaultLevels":[
						{
							"levels":4,
							"weight":10
						},
						{
							"levels":5,
							"weight":40
						},
						{
							"levels":6,
							"weight":10
						}
					]
				},
				"dream_textures_prompt":{},
				"uuid":"a374e7d2-6fcd-4668-86bf-87297419fa59",
				"assets reported":{}
			},
			"name":"Scene",
			"nodes":[
				1
			]
		}
	],
	"nodes":[
		{
			"mesh":0,
			"name":"peafowl.001"
		},
		{
			"children":[
				0
			],
			"mesh":1,
			"name":"peafowl",
			"rotation":[
				1,
				0,
				0,
				7.549790126404332e-08
			]
		}
	],
	"materials":[
		{
			"alphaCutoff":0.5,
			"alphaMode":"MASK",
			"doubleSided":true,
			"extensions":{
				"KHR_materials_specular":{
					"specularColorFactor":[
						0,
						0,
						0
					]
				},
				"KHR_materials_ior":{
					"ior":1.4500000476837158
				}
			},
			"name":"peafowl",
			"pbrMetallicRoughness":{
				"baseColorTexture":{
					"index":0
				},
				"metallicFactor":0
			}
		}
	],
	"meshes":[
		{
			"name":"peafowl.001",
			"primitives":[
				{
					"attributes":{
						"POSITION":0,
						"TEXCOORD_0":1,
						"NORMAL":2
					},
					"indices":3,
					"material":0
				}
			]
		},
		{
			"name":"peafowl",
			"primitives":[
				{
					"attributes":{
						"POSITION":4,
						"TEXCOORD_0":5,
						"NORMAL":6
					},
					"indices":7,
					"material":0
				}
			]
		}
	],
	"textures":[
		{
			"sampler":0,
			"source":0
		}
	],
	"images":[
		{
			"bufferView":4,
			"mimeType":"image/png",
			"name":"d"
		}
	],
	"accessors":[
		{
			"bufferView":0,
			"componentType":5126,
			"count":3632,
			"max":[
				54.19374465942383,
				-6.193297386169434,
				31.415307998657227
			],
			"min":[
				-54.781639099121094,
				-61.04495620727539,
				0.5451787710189819
			],
			"type":"VEC3"
		},
		{
			"bufferView":1,
			"componentType":5126,
			"count":3632,
			"type":"VEC2"
		},
		{
			"bufferView":2,
			"componentType":5126,
			"count":3632,
			"type":"VEC3"
		},
		{
			"bufferView":3,
			"componentType":5123,
			"count":6006,
			"type":"SCALAR"
		},
		{
			"bufferView":5,
			"componentType":5126,
			"count":1624,
			"max":[
				3.690814971923828,
				0.2440418004989624,
				13.832701683044434
			],
			"min":[
				-4.1220197677612305,
				-25.930130004882812,
				-10.644375801086426
			],
			"type":"VEC3"
		},
		{
			"bufferView":6,
			"componentType":5126,
			"count":1624,
			"type":"VEC2"
		},
		{
			"bufferView":7,
			"componentType":5126,
			"count":1624,
			"type":"VEC3"
		},
		{
			"bufferView":8,
			"componentType":5123,
			"count":1920,
			"type":"SCALAR"
		}
	],
	"bufferViews":[
		{
			"buffer":0,
			"byteLength":43584,
			"byteOffset":0,
			"target":34962
		},
		{
			"buffer":0,
			"byteLength":29056,
			"byteOffset":43584,
			"target":34962
		},
		{
			"buffer":0,
			"byteLength":43584,
			"byteOffset":72640,
			"target":34962
		},
		{
			"buffer":0,
			"byteLength":12012,
			"byteOffset":116224,
			"target":34963
		},
		{
			"buffer":0,
			"byteLength":101289,
			"byteOffset":128236
		},
		{
			"buffer":0,
			"byteLength":19488,
			"byteOffset":229528,
			"target":34962
		},
		{
			"buffer":0,
			"byteLength":12992,
			"byteOffset":249016,
			"target":34962
		},
		{
			"buffer":0,
			"byteLength":19488,
			"byteOffset":262008,
			"target":34962
		},
		{
			"buffer":0,
			"byteLength":3840,
			"byteOffset":281496,
			"target":34963
		}
	],
	"samplers":[
		{
			"magFilter":9729,
			"minFilter":9987
		}
	],
	"buffers":[
		{
			"byteLength":285336,
			"uri":"data:application/octet-stream;base64,"
		}
	]
}
