{
	"asset":{
		"generator":"Khronos glTF Blender I/O v3.5.30",
		"version":"2.0"
	},
	"extensionsUsed":[
		"KHR_materials_specular",
		"KHR_materials_ior"
	],
	"scene":0,
	"scenes":[
		{
			"name":"Scene",
			"nodes":[
				0
			]
		}
	],
	"nodes":[
		{
			"mesh":0,
			"name":"U3DMesh",
			"rotation":[
				0.4379369616508484,
				-0.4379369616508484,
				0.5551677942276001,
				0.5551678538322449
			],
			"scale":[
				0.01869644969701767,
				0.01869645155966282,
				0.01869644969701767
			]
		}
	],
	"materials":[
		{
			"doubleSided":true,
			"extensions":{
				"KHR_materials_specular":{
					"specularColorFactor":[
						2.371357614441398,
						2.371357614441398,
						2.371357614441398
					]
				},
				"KHR_materials_ior":{
					"ior":1.4500000476837158
				}
			},
			"name":"em0100_1",
			"pbrMetallicRoughness":{
				"baseColorTexture":{
					"index":0
				},
				"roughnessFactor":0.8999999761581421
			}
		},
		{
			"doubleSided":true,
			"extensions":{
				"KHR_materials_specular":{
					"specularColorFactor":[
						2.371357614441398,
						2.371357614441398,
						2.371357614441398
					]
				},
				"KHR_materials_ior":{
					"ior":1.4500000476837158
				}
			},
			"name":"em0101",
			"pbrMetallicRoughness":{
				"baseColorTexture":{
					"index":1
				},
				"roughnessFactor":0.8999999761581421
			}
		}
	],
	"meshes":[
		{
			"name":"U3DMesh",
			"primitives":[
				{
					"attributes":{
						"COLOR_0":0,
						"POSITION":1,
						"TEXCOORD_0":2,
						"TEXCOORD_1":3,
						"NORMAL":4
					},
					"indices":5,
					"material":0
				},
				{
					"attributes":{
						"COLOR_0":6,
						"POSITION":7,
						"TEXCOORD_0":8,
						"TEXCOORD_1":9,
						"NORMAL":10
					},
					"indices":11,
					"material":1
				}
			]
		}
	],
	"textures":[
		{
			"sampler":0,
			"source":0
		},
		{
			"sampler":0,
			"source":1
		}
	],
	"images":[
		{
			"bufferView":6,
			"mimeType":"image/jpeg",
			"name":"em0100"
		},
		{
			"bufferView":13,
			"mimeType":"image/jpeg",
			"name":"em0101"
		}
	],
	"accessors":[
		{
			"bufferView":0,
			"componentType":5123,
			"count":660,
			"normalized":true,
			"type":"VEC4"
		},
		{
			"bufferView":1,
			"componentType":5126,
			"count":660,
			"max":[
				41.53645706176758,
				92.97418212890625,
				-0.9276267290115356
			],
			"min":[
				-56.577362060546875,
				-92.97418975830078,
				-47.66548156738281
			],
			"type":"VEC3"
		},
		{
			"bufferView":2,
			"componentType":5126,
			"count":660,
			"type":"VEC2"
		},
		{
			"bufferView":3,
			"componentType":5126,
			"count":660,
			"type":"VEC2"
		},
		{
			"bufferView":4,
			"componentType":5126,
			"count":660,
			"type":"VEC3"
		},
		{
			"bufferView":5,
			"componentType":5123,
			"count":3102,
			"type":"SCALAR"
		},
		{
			"bufferView":7,
			"componentType":5123,
			"count":366,
			"normalized":true,
			"type":"VEC4"
		},
		{
			"bufferView":8,
			"componentType":5126,
			"count":366,
			"max":[
				41.53645706176758,
				11.270631790161133,
				-8.284757614135742
			],
			"min":[
				-27.94034767150879,
				-11.2706298828125,
				-40.42233657836914
			],
			"type":"VEC3"
		},
		{
			"bufferView":9,
			"componentType":5126,
			"count":366,
			"type":"VEC2"
		},
		{
			"bufferView":10,
			"componentType":5126,
			"count":366,
			"type":"VEC2"
		},
		{
			"bufferView":11,
			"componentType":5126,
			"count":366,
			"type":"VEC3"
		},
		{
			"bufferView":12,
			"componentType":5123,
			"count":1716,
			"type":"SCALAR"
		}
	],
	"bufferViews":[
		{
			"buffer":0,
			"byteLength":5280,
			"byteOffset":0,
			"target":34962
		},
		{
			"buffer":0,
			"byteLength":7920,
			"byteOffset":5280,
			"target":34962
		},
		{
			"buffer":0,
			"byteLength":5280,
			"byteOffset":13200,
			"target":34962
		},
		{
			"buffer":0,
			"byteLength":5280,
			"byteOffset":18480,
			"target":34962
		},
		{
			"buffer":0,
			"byteLength":7920,
			"byteOffset":23760,
			"target":34962
		},
		{
			"buffer":0,
			"byteLength":6204,
			"byteOffset":31680,
			"target":34963
		},
		{
			"buffer":0,
			"byteLength":11033,
			"byteOffset":37884
		},
		{
			"buffer":0,
			"byteLength":2928,
			"byteOffset":48920,
			"target":34962
		},
		{
			"buffer":0,
			"byteLength":4392,
			"byteOffset":51848,
			"target":34962
		},
		{
			"buffer":0,
			"byteLength":2928,
			"byteOffset":56240,
			"target":34962
		},
		{
			"buffer":0,
			"byteLength":2928,
			"byteOffset":59168,
			"target":34962
		},
		{
			"buffer":0,
			"byteLength":4392,
			"byteOffset":62096,
			"target":34962
		},
		{
			"buffer":0,
			"byteLength":3432,
			"byteOffset":66488,
			"target":34963
		},
		{
			"buffer":0,
			"byteLength":3918,
			"byteOffset":69920
		}
	],
	"samplers":[
		{
			"magFilter":9729,
			"minFilter":9987
		}
	],
	"buffers":[
		{
			"byteLength":73840,
			"uri":"data:application/octet-stream;base64,"
		}
	]
}
