{
	"asset":{
		"generator":"Khronos glTF Blender I/O v3.5.30",
		"version":"2.0"
	},
	"scene":0,
	"scenes":[
		{
			"name":"Scene",
			"nodes":[
				0,
				1
			]
		}
	],
	"nodes":[
		{
			"mesh":0,
			"name":"Cylinder",
			"translation":[
				0,
				1,
				0
			]
		},
		{
			"mesh":1,
			"name":"Cylinder.001",
			"scale":[
				0.9952296614646912,
				0.9952296614646912,
				0.9952296614646912
			],
			"translation":[
				0,
				1,
				0
			]
		}
	],
	"materials":[
		{
			"alphaMode":"BLEND",
			"doubleSided":true,
			"name":"Material.001",
			"pbrMetallicRoughness":{
				"baseColorFactor":[
					0.800000011920929,
					0.800000011920929,
					0.800000011920929,
					0.11764708161354065
				],
				"metallicFactor":0,
				"roughnessFactor":0.5
			}
		},
		{
			"doubleSided":true,
			"name":"Material.002",
			"pbrMetallicRoughness":{
				"baseColorFactor":[
					0.18458209931850433,
					0.2635938823223114,
					0.3235553205013275,
					1
				],
				"metallicFactor":0,
				"roughnessFactor":0.5
			}
		}
	],
	"meshes":[
		{
			"name":"Cylinder",
			"primitives":[
				{
					"attributes":{
						"POSITION":0,
						"TEXCOORD_0":1,
						"NORMAL":2
					},
					"indices":3,
					"material":0
				}
			]
		},
		{
			"name":"Cylinder.001",
			"primitives":[
				{
					"attributes":{
						"POSITION":4,
						"TEXCOORD_0":5,
						"NORMAL":6
					},
					"indices":7,
					"material":1
				}
			]
		}
	],
	"accessors":[
		{
			"bufferView":0,
			"componentType":5126,
			"count":262,
			"max":[
				1.0362814664840698,
				1,
				1.0362814664840698
			],
			"min":[
				-1.0362814664840698,
				-1.0279089212417603,
				-1.0362814664840698
			],
			"type":"VEC3"
		},
		{
			"bufferView":1,
			"componentType":5126,
			"count":262,
			"type":"VEC2"
		},
		{
			"bufferView":2,
			"componentType":5126,
			"count":262,
			"type":"VEC3"
		},
		{
			"bufferView":3,
			"componentType":5123,
			"count":756,
			"type":"SCALAR"
		},
		{
			"bufferView":4,
			"componentType":5126,
			"count":130,
			"max":[
				0.885129988193512,
				0.42564982175827026,
				0.885129988193512
			],
			"min":[
				-0.885129988193512,
				-1,
				-0.885129988193512
			],
			"type":"VEC3"
		},
		{
			"bufferView":5,
			"componentType":5126,
			"count":130,
			"type":"VEC2"
		},
		{
			"bufferView":6,
			"componentType":5126,
			"count":130,
			"type":"VEC3"
		},
		{
			"bufferView":7,
			"componentType":5123,
			"count":372,
			"type":"SCALAR"
		}
	],
	"bufferViews":[
		{
			"buffer":0,
			"byteLength":3144,
			"byteOffset":0,
			"target":34962
		},
		{
			"buffer":0,
			"byteLength":2096,
			"byteOffset":3144,
			"target":34962
		},
		{
			"buffer":0,
			"byteLength":3144,
			"byteOffset":5240,
			"target":34962
		},
		{
			"buffer":0,
			"byteLength":1512,
			"byteOffset":8384,
			"target":34963
		},
		{
			"buffer":0,
			"byteLength":1560,
			"byteOffset":9896,
			"target":34962
		},
		{
			"buffer":0,
			"byteLength":1040,
			"byteOffset":11456,
			"target":34962
		},
		{
			"buffer":0,
			"byteLength":1560,
			"byteOffset":12496,
			"target":34962
		},
		{
			"buffer":0,
			"byteLength":744,
			"byteOffset":14056,
			"target":34963
		}
	],
	"buffers":[
		{
			"byteLength":14800,
			"uri":"data:application/octet-stream;base64,"
		}
	]
}
